<mxfile host="app.diagrams.net" modified="2023-11-22T23:26:53.310Z" agent="Mozilla/5.0 (Windows NT 10.0; Win64; x64) AppleWebKit/537.36 (KHTML, like Gecko) Chrome/119.0.0.0 Safari/537.36" etag="DaYdQixi5AS8LoCUq4cL" version="22.1.3" type="github">
  <diagram name="Page-1" id="5f0bae14-7c28-e335-631c-24af17079c00">
    <mxGraphModel dx="1195" dy="658" grid="1" gridSize="10" guides="1" tooltips="1" connect="1" arrows="1" fold="1" page="1" pageScale="1" pageWidth="1169" pageHeight="827" background="none" math="0" shadow="0">
      <root>
        <mxCell id="0" />
        <mxCell id="1" parent="0" />
        <mxCell id="sHz6E42yQPUQGKfIRvUd-1" value="&lt;font style=&quot;font-size: 15px;&quot;&gt;Ingreso Clientes&lt;/font&gt;" style="html=1;outlineConnect=0;whiteSpace=wrap;fillColor=#99ffff;shape=mxgraph.archimate3.application;appType=interface;archiType=square;" vertex="1" parent="1">
          <mxGeometry x="200" y="80" width="170" height="75" as="geometry" />
        </mxCell>
        <mxCell id="sHz6E42yQPUQGKfIRvUd-2" value="Lógica de Ingreso de Clientes&amp;nbsp;" style="html=1;outlineConnect=0;whiteSpace=wrap;fillColor=#99ffff;shape=mxgraph.archimate3.application;appType=func;archiType=rounded;" vertex="1" parent="1">
          <mxGeometry x="210" y="260" width="150" height="75" as="geometry" />
        </mxCell>
        <mxCell id="sHz6E42yQPUQGKfIRvUd-4" value="" style="line;strokeWidth=2;direction=south;html=1;" vertex="1" parent="1">
          <mxGeometry x="280" y="155" width="10" height="105" as="geometry" />
        </mxCell>
        <mxCell id="sHz6E42yQPUQGKfIRvUd-5" value="Ingreso de Clientes" style="html=1;outlineConnect=0;whiteSpace=wrap;fillColor=#99ffff;shape=mxgraph.archimate3.component;align=center;" vertex="1" parent="1">
          <mxGeometry x="200" y="400" width="140" height="155" as="geometry" />
        </mxCell>
        <mxCell id="sHz6E42yQPUQGKfIRvUd-6" value="" style="line;strokeWidth=2;direction=south;html=1;" vertex="1" parent="1">
          <mxGeometry x="280" y="335" width="10" height="65" as="geometry" />
        </mxCell>
        <mxCell id="sHz6E42yQPUQGKfIRvUd-29" style="edgeStyle=orthogonalEdgeStyle;rounded=0;orthogonalLoop=1;jettySize=auto;html=1;exitX=0.5;exitY=1;exitDx=0;exitDy=0;exitPerimeter=0;" edge="1" parent="1" source="sHz6E42yQPUQGKfIRvUd-8">
          <mxGeometry relative="1" as="geometry">
            <mxPoint x="950" y="527.5" as="targetPoint" />
          </mxGeometry>
        </mxCell>
        <mxCell id="sHz6E42yQPUQGKfIRvUd-8" value="Logica de Registro de Clientes" style="html=1;outlineConnect=0;whiteSpace=wrap;fillColor=#99ffff;shape=mxgraph.archimate3.application;appType=func;archiType=rounded;" vertex="1" parent="1">
          <mxGeometry x="210" y="620" width="150" height="75" as="geometry" />
        </mxCell>
        <mxCell id="sHz6E42yQPUQGKfIRvUd-9" value="" style="line;strokeWidth=2;direction=south;html=1;rotation=-180;" vertex="1" parent="1">
          <mxGeometry x="280" y="555" width="10" height="65" as="geometry" />
        </mxCell>
        <mxCell id="sHz6E42yQPUQGKfIRvUd-12" value="&lt;font style=&quot;font-size: 15px;&quot;&gt;Ingreso Vehiculos&lt;/font&gt;" style="html=1;outlineConnect=0;whiteSpace=wrap;fillColor=#99ffff;shape=mxgraph.archimate3.application;appType=interface;archiType=square;" vertex="1" parent="1">
          <mxGeometry x="415" y="80" width="170" height="75" as="geometry" />
        </mxCell>
        <mxCell id="sHz6E42yQPUQGKfIRvUd-13" value="Lógica de Ingreso de Clientes&amp;nbsp;" style="html=1;outlineConnect=0;whiteSpace=wrap;fillColor=#99ffff;shape=mxgraph.archimate3.application;appType=func;archiType=rounded;" vertex="1" parent="1">
          <mxGeometry x="425" y="260" width="150" height="75" as="geometry" />
        </mxCell>
        <mxCell id="sHz6E42yQPUQGKfIRvUd-14" value="" style="line;strokeWidth=2;direction=south;html=1;" vertex="1" parent="1">
          <mxGeometry x="495" y="155" width="10" height="105" as="geometry" />
        </mxCell>
        <mxCell id="sHz6E42yQPUQGKfIRvUd-16" value="Ingreso de Vehiculos" style="html=1;outlineConnect=0;whiteSpace=wrap;fillColor=#99ffff;shape=mxgraph.archimate3.component;align=center;" vertex="1" parent="1">
          <mxGeometry x="415" y="400" width="140" height="155" as="geometry" />
        </mxCell>
        <mxCell id="sHz6E42yQPUQGKfIRvUd-17" value="" style="line;strokeWidth=2;direction=south;html=1;" vertex="1" parent="1">
          <mxGeometry x="495" y="335" width="10" height="65" as="geometry" />
        </mxCell>
        <mxCell id="sHz6E42yQPUQGKfIRvUd-18" value="" style="line;strokeWidth=2;direction=south;html=1;rotation=-180;" vertex="1" parent="1">
          <mxGeometry x="495" y="555" width="10" height="65" as="geometry" />
        </mxCell>
        <mxCell id="sHz6E42yQPUQGKfIRvUd-30" style="edgeStyle=orthogonalEdgeStyle;rounded=0;orthogonalLoop=1;jettySize=auto;html=1;exitX=0.5;exitY=1;exitDx=0;exitDy=0;exitPerimeter=0;" edge="1" parent="1">
          <mxGeometry relative="1" as="geometry">
            <mxPoint x="960" y="527.5" as="targetPoint" />
            <mxPoint x="510" y="695" as="sourcePoint" />
          </mxGeometry>
        </mxCell>
        <mxCell id="sHz6E42yQPUQGKfIRvUd-19" value="Logica de Registro de Vehiculos" style="html=1;outlineConnect=0;whiteSpace=wrap;fillColor=#99ffff;shape=mxgraph.archimate3.application;appType=func;archiType=rounded;" vertex="1" parent="1">
          <mxGeometry x="425" y="620" width="150" height="75" as="geometry" />
        </mxCell>
        <mxCell id="sHz6E42yQPUQGKfIRvUd-20" value="&lt;font style=&quot;font-size: 15px;&quot;&gt;Ingreso Reparacion&lt;/font&gt;" style="html=1;outlineConnect=0;whiteSpace=wrap;fillColor=#99ffff;shape=mxgraph.archimate3.application;appType=interface;archiType=square;" vertex="1" parent="1">
          <mxGeometry x="620" y="80" width="170" height="75" as="geometry" />
        </mxCell>
        <mxCell id="sHz6E42yQPUQGKfIRvUd-21" value="Logica de Ingreso de Reparaciones" style="html=1;outlineConnect=0;whiteSpace=wrap;fillColor=#99ffff;shape=mxgraph.archimate3.application;appType=func;archiType=rounded;" vertex="1" parent="1">
          <mxGeometry x="630" y="260" width="150" height="75" as="geometry" />
        </mxCell>
        <mxCell id="sHz6E42yQPUQGKfIRvUd-22" value="" style="line;strokeWidth=2;direction=south;html=1;" vertex="1" parent="1">
          <mxGeometry x="700" y="155" width="10" height="105" as="geometry" />
        </mxCell>
        <mxCell id="sHz6E42yQPUQGKfIRvUd-23" value="Ingreso de Reparaciones" style="html=1;outlineConnect=0;whiteSpace=wrap;fillColor=#99ffff;shape=mxgraph.archimate3.component;align=center;" vertex="1" parent="1">
          <mxGeometry x="620" y="400" width="140" height="155" as="geometry" />
        </mxCell>
        <mxCell id="sHz6E42yQPUQGKfIRvUd-24" value="" style="line;strokeWidth=2;direction=south;html=1;" vertex="1" parent="1">
          <mxGeometry x="700" y="335" width="10" height="65" as="geometry" />
        </mxCell>
        <mxCell id="sHz6E42yQPUQGKfIRvUd-25" value="" style="line;strokeWidth=2;direction=south;html=1;rotation=-180;" vertex="1" parent="1">
          <mxGeometry x="700" y="555" width="10" height="65" as="geometry" />
        </mxCell>
        <mxCell id="sHz6E42yQPUQGKfIRvUd-31" style="edgeStyle=orthogonalEdgeStyle;rounded=0;orthogonalLoop=1;jettySize=auto;html=1;" edge="1" parent="1" source="sHz6E42yQPUQGKfIRvUd-26">
          <mxGeometry relative="1" as="geometry">
            <mxPoint x="970" y="527.5" as="targetPoint" />
            <Array as="points">
              <mxPoint x="970" y="658" />
            </Array>
          </mxGeometry>
        </mxCell>
        <mxCell id="sHz6E42yQPUQGKfIRvUd-26" value="Logica de Registro de Reparaciones" style="html=1;outlineConnect=0;whiteSpace=wrap;fillColor=#99ffff;shape=mxgraph.archimate3.application;appType=func;archiType=rounded;" vertex="1" parent="1">
          <mxGeometry x="630" y="620" width="150" height="75" as="geometry" />
        </mxCell>
        <mxCell id="sHz6E42yQPUQGKfIRvUd-32" value="&lt;font style=&quot;font-size: 15px;&quot;&gt;Programa&lt;/font&gt;" style="html=1;outlineConnect=0;whiteSpace=wrap;fillColor=#99ffff;shape=mxgraph.archimate3.component;" vertex="1" parent="1">
          <mxGeometry x="880" y="260" width="140" height="100" as="geometry" />
        </mxCell>
        <mxCell id="sHz6E42yQPUQGKfIRvUd-33" value="" style="line;strokeWidth=2;direction=south;html=1;" vertex="1" parent="1">
          <mxGeometry x="960" y="360" width="10" height="67.5" as="geometry" />
        </mxCell>
        <mxCell id="sHz6E42yQPUQGKfIRvUd-34" value="&lt;div style=&quot;&quot;&gt;&lt;span style=&quot;font-size: 16px; background-color: initial;&quot;&gt;Gestion de Cobro&lt;/span&gt;&lt;/div&gt;" style="html=1;outlineConnect=0;whiteSpace=wrap;fillColor=#99ffff;shape=mxgraph.archimate3.component;align=center;" vertex="1" parent="1">
          <mxGeometry x="1090" y="250" width="240" height="120" as="geometry" />
        </mxCell>
        <mxCell id="sHz6E42yQPUQGKfIRvUd-35" value="" style="line;strokeWidth=2;direction=south;html=1;rotation=90;" vertex="1" parent="1">
          <mxGeometry x="1050" y="260" width="10" height="67.5" as="geometry" />
        </mxCell>
        <mxCell id="sHz6E42yQPUQGKfIRvUd-36" value="&lt;table cellpadding=&quot;0&quot; cellspacing=&quot;0&quot; style=&quot;font-size:1em;width:100%;height:100%;&quot;&gt;&lt;tbody&gt;&lt;tr style=&quot;height:20px;&quot;&gt;&lt;td align=&quot;center&quot;&gt;Base de datos&amp;nbsp;&lt;/td&gt;&lt;/tr&gt;&lt;tr&gt;&lt;td valign=&quot;top&quot; style=&quot;padding:4px;&quot;&gt;&lt;font style=&quot;font-size: 17px;&quot;&gt;BD del Taller&lt;/font&gt;&lt;/td&gt;&lt;/tr&gt;&lt;/tbody&gt;&lt;/table&gt;" style="html=1;outlineConnect=0;whiteSpace=wrap;fillColor=#99ffff;shape=mxgraph.archimate3.businessObject;overflow=fill" vertex="1" parent="1">
          <mxGeometry x="880" y="435" width="170" height="85" as="geometry" />
        </mxCell>
        <mxCell id="sHz6E42yQPUQGKfIRvUd-38" value="&lt;font style=&quot;font-size: 15px;&quot;&gt;Cobro por Reparaciones&lt;/font&gt;" style="html=1;outlineConnect=0;whiteSpace=wrap;fillColor=#99ffff;shape=mxgraph.archimate3.application;appType=interface;archiType=square;" vertex="1" parent="1">
          <mxGeometry x="1160" y="580" width="170" height="75" as="geometry" />
        </mxCell>
        <mxCell id="sHz6E42yQPUQGKfIRvUd-39" value="Logica de Cobro" style="html=1;outlineConnect=0;whiteSpace=wrap;fillColor=#99ffff;shape=mxgraph.archimate3.application;appType=func;archiType=rounded;" vertex="1" parent="1">
          <mxGeometry x="1170" y="437.5" width="150" height="75" as="geometry" />
        </mxCell>
        <mxCell id="sHz6E42yQPUQGKfIRvUd-40" value="" style="line;strokeWidth=2;direction=south;html=1;" vertex="1" parent="1">
          <mxGeometry x="1240" y="512.5" width="10" height="67.5" as="geometry" />
        </mxCell>
        <mxCell id="sHz6E42yQPUQGKfIRvUd-41" value="" style="line;strokeWidth=2;direction=south;html=1;" vertex="1" parent="1">
          <mxGeometry x="1240" y="370" width="10" height="67.5" as="geometry" />
        </mxCell>
      </root>
    </mxGraphModel>
  </diagram>
</mxfile>
